<svg width="532" height="148" viewBox="0 0 532 148" fill="none" xmlns="http://www.w3.org/2000/svg">
<g clip-path="url(#clip0_98_17)">
<path d="M77.2806 123.923C104.495 123.923 126.6 101.56 126.6 73.9808C126.6 46.4012 104.495 24 77.2806 24C50.0666 24 28 46.4012 28 73.9808C28 101.56 50.0666 123.923 77.2806 123.923ZM77.2806 116.788C53.9273 116.788 35.0401 97.6478 35.0401 73.9808C35.0401 50.3138 53.9273 31.173 77.2806 31.173C100.634 31.173 119.522 50.3138 119.522 73.9808C119.522 97.6478 100.634 116.788 77.2806 116.788Z" fill="black"/>
<path d="M77.2429 95.1164C96.6598 95.1164 110.324 78.9673 110.324 73.9808C110.324 68.9944 96.5842 52.8455 77.2429 52.8455C57.7879 52.8455 44.1619 68.9944 44.1619 73.9808C44.1619 78.9673 57.9772 95.1164 77.2429 95.1164ZM77.2429 87.8282C69.635 87.8282 63.5411 81.4992 63.5411 73.9808C63.5033 66.2708 69.635 60.1335 77.2429 60.1335C84.7749 60.1335 90.9444 66.2708 90.9444 73.9808C90.9444 81.4992 84.7749 87.8282 77.2429 87.8282ZM77.3185 79.8114C80.3843 79.8114 83.0338 77.0878 83.0338 73.9808C83.0338 70.8354 80.3843 68.1503 77.3185 68.1503C74.1392 68.1503 71.4516 70.8354 71.4516 73.9808C71.4516 77.0878 74.1392 79.8114 77.3185 79.8114Z" fill="black"/>
</g>
<path d="M133.59 111.748V45.2344H141.916V53.6562H142.107C143.16 51.7103 144.452 50.0514 145.983 48.6797C147.547 47.276 149.333 46.1914 151.343 45.4258C153.353 44.6602 155.538 44.2773 157.898 44.2773C162.141 44.2773 165.842 45.346 169 47.4834C172.19 49.5889 174.662 52.5876 176.417 56.4795C178.172 60.3395 179.049 64.8854 179.049 70.1172V70.165C179.049 75.3968 178.156 79.9427 176.369 83.8027C174.615 87.6628 172.158 90.6615 169 92.7988C165.874 94.9043 162.221 95.957 158.042 95.957C155.713 95.957 153.528 95.5902 151.486 94.8564C149.445 94.0908 147.626 93.0221 146.031 91.6504C144.468 90.2467 143.16 88.5879 142.107 86.6738H141.916V111.748H133.59ZM156.271 88.5879C159.206 88.5879 161.743 87.8382 163.88 86.3389C166.017 84.8395 167.66 82.7181 168.809 79.9746C169.957 77.1992 170.531 73.9294 170.531 70.165V70.1172C170.531 66.2891 169.957 63.0033 168.809 60.2598C167.66 57.4844 166.017 55.363 163.88 53.8955C161.743 52.3962 159.206 51.6465 156.271 51.6465C153.464 51.6465 150.976 52.4121 148.807 53.9434C146.637 55.4746 144.931 57.6279 143.687 60.4033C142.474 63.1468 141.868 66.3848 141.868 70.1172V70.165C141.868 73.8656 142.49 77.1035 143.734 79.8789C144.979 82.6224 146.669 84.7598 148.807 86.291C150.976 87.8223 153.464 88.5879 156.271 88.5879ZM187.471 111.748V45.2344H195.797V53.6562H195.988C197.041 51.7103 198.333 50.0514 199.864 48.6797C201.427 47.276 203.214 46.1914 205.224 45.4258C207.233 44.6602 209.419 44.2773 211.779 44.2773C216.022 44.2773 219.723 45.346 222.881 47.4834C226.071 49.5889 228.543 52.5876 230.298 56.4795C232.052 60.3395 232.93 64.8854 232.93 70.1172V70.165C232.93 75.3968 232.036 79.9427 230.25 83.8027C228.495 87.6628 226.039 90.6615 222.881 92.7988C219.755 94.9043 216.102 95.957 211.923 95.957C209.594 95.957 207.409 95.5902 205.367 94.8564C203.326 94.0908 201.507 93.0221 199.912 91.6504C198.349 90.2467 197.041 88.5879 195.988 86.6738H195.797V111.748H187.471ZM210.152 88.5879C213.087 88.5879 215.623 87.8382 217.761 86.3389C219.898 84.8395 221.541 82.7181 222.689 79.9746C223.838 77.1992 224.412 73.9294 224.412 70.165V70.1172C224.412 66.2891 223.838 63.0033 222.689 60.2598C221.541 57.4844 219.898 55.363 217.761 53.8955C215.623 52.3962 213.087 51.6465 210.152 51.6465C207.345 51.6465 204.857 52.4121 202.688 53.9434C200.518 55.4746 198.812 57.6279 197.567 60.4033C196.355 63.1468 195.749 66.3848 195.749 70.1172V70.165C195.749 73.8656 196.371 77.1035 197.615 79.8789C198.859 82.6224 200.55 84.7598 202.688 86.291C204.857 87.8223 207.345 88.5879 210.152 88.5879ZM261.976 95.957C257.382 95.957 253.346 94.9043 249.869 92.7988C246.424 90.6934 243.728 87.7106 241.782 83.8506C239.868 79.9587 238.911 75.3809 238.911 70.1172V70.0215C238.911 64.7259 239.868 60.1641 241.782 56.3359C243.728 52.4759 246.424 49.5091 249.869 47.4355C253.346 45.3301 257.366 44.2773 261.928 44.2773C266.521 44.2773 270.541 45.3301 273.986 47.4355C277.464 49.5091 280.159 52.4759 282.073 56.3359C284.019 60.1641 284.992 64.7259 284.992 70.0215V70.1172C284.992 75.4128 284.019 79.9906 282.073 83.8506C280.159 87.7106 277.479 90.6934 274.034 92.7988C270.589 94.9043 266.569 95.957 261.976 95.957ZM262.023 88.5879C264.958 88.5879 267.494 87.8701 269.632 86.4346C271.801 84.9671 273.476 82.8617 274.656 80.1182C275.868 77.3428 276.475 74.0091 276.475 70.1172V70.0215C276.475 66.1296 275.868 62.8118 274.656 60.0684C273.476 57.3249 271.785 55.2354 269.584 53.7998C267.415 52.3643 264.863 51.6465 261.928 51.6465C259.057 51.6465 256.521 52.3802 254.319 53.8477C252.15 55.2832 250.459 57.3727 249.247 60.1162C248.035 62.8278 247.429 66.1296 247.429 70.0215V70.1172C247.429 74.0091 248.035 77.3428 249.247 80.1182C250.459 82.8617 252.15 84.9671 254.319 86.4346C256.521 87.8701 259.089 88.5879 262.023 88.5879ZM293.414 95V45.2344H301.74V53.6562H301.932C302.761 50.7852 304.197 48.5042 306.238 46.8135C308.28 45.1227 310.704 44.2773 313.512 44.2773C314.245 44.2773 314.899 44.3252 315.474 44.4209C316.08 44.4847 316.542 44.5485 316.861 44.6123V52.6992C316.542 52.5716 315.968 52.46 315.139 52.3643C314.341 52.2686 313.432 52.2207 312.411 52.2207C310.274 52.2207 308.392 52.6992 306.765 53.6562C305.17 54.6133 303.925 56.001 303.032 57.8193C302.171 59.6058 301.74 61.7591 301.74 64.2793V95H293.414ZM342.223 95.957C337.661 95.957 334.247 94.8724 331.982 92.7031C329.717 90.5339 328.585 87.0726 328.585 82.3193V52.125H321.312V45.2344H328.585V31.7881H337.198V45.2344H346.673V52.125H337.198V82.2715C337.198 84.9193 337.772 86.7217 338.921 87.6787C340.069 88.6038 341.76 89.0664 343.993 89.0664C344.504 89.0664 344.982 89.0505 345.429 89.0186C345.907 88.9548 346.322 88.9069 346.673 88.875V95.6221C346.162 95.6859 345.493 95.7497 344.663 95.8135C343.866 95.9092 343.052 95.957 342.223 95.957ZM372.608 95.957C368.972 95.957 365.861 95.2074 363.277 93.708C360.725 92.2087 358.763 90.0872 357.392 87.3438C356.052 84.5684 355.382 81.2985 355.382 77.5342V45.2344H363.708V76.0508C363.708 80.1022 364.649 83.2126 366.531 85.3818C368.445 87.5192 371.316 88.5879 375.145 88.5879C377.122 88.5879 378.893 88.2529 380.456 87.583C382.051 86.9131 383.423 85.972 384.571 84.7598C385.72 83.5156 386.597 82.0322 387.203 80.3096C387.809 78.555 388.112 76.625 388.112 74.5195V45.2344H396.438V95H388.112V87.918H387.921C387.028 89.4492 385.863 90.821 384.428 92.0332C383.024 93.2454 381.333 94.2025 379.355 94.9043C377.378 95.6061 375.129 95.957 372.608 95.957ZM407.301 95V45.2344H415.627V52.3164H415.818C417.158 49.9876 419.104 48.0736 421.656 46.5742C424.208 45.043 427.367 44.2773 431.131 44.2773C436.586 44.2773 440.813 45.9362 443.812 49.2539C446.842 52.5397 448.357 57.0218 448.357 62.7002V95H440.031V64.1836C440.031 60.1322 439.074 57.0378 437.16 54.9004C435.278 52.7311 432.423 51.6465 428.595 51.6465C425.979 51.6465 423.698 52.2367 421.752 53.417C419.806 54.5654 418.291 56.1924 417.206 58.2979C416.153 60.4033 415.627 62.8757 415.627 65.7148V95H407.301ZM479.461 95.957C474.708 95.957 470.608 94.9043 467.163 92.7988C463.75 90.6934 461.118 87.7266 459.268 83.8984C457.449 80.0384 456.54 75.5085 456.54 70.3086V70.2607C456.54 65.1247 457.465 60.6107 459.315 56.7188C461.166 52.7949 463.766 49.7484 467.115 47.5791C470.465 45.3779 474.405 44.2773 478.935 44.2773C483.465 44.2773 487.356 45.3301 490.61 47.4355C493.896 49.5091 496.416 52.4281 498.171 56.1924C499.925 59.9567 500.803 64.3271 500.803 69.3037V72.3662H460.703V65.8584H496.688L492.477 71.8877V68.6816C492.477 64.8216 491.886 61.6315 490.706 59.1113C489.558 56.5911 487.963 54.7249 485.921 53.5127C483.879 52.2686 481.535 51.6465 478.887 51.6465C476.239 51.6465 473.862 52.3005 471.757 53.6084C469.651 54.8844 467.993 56.7985 466.78 59.3506C465.568 61.8708 464.962 64.9811 464.962 68.6816V71.8877C464.962 75.3968 465.552 78.3955 466.732 80.8838C467.945 83.3721 469.651 85.2861 471.853 86.626C474.054 87.9339 476.654 88.5879 479.652 88.5879C481.758 88.5879 483.64 88.2689 485.299 87.6309C486.958 86.9928 488.345 86.1156 489.462 84.999C490.578 83.8825 491.376 82.6064 491.854 81.1709L491.998 80.7402H500.181L500.085 81.2188C499.67 83.2604 498.873 85.1745 497.692 86.9609C496.544 88.7474 495.061 90.3265 493.242 91.6982C491.424 93.0381 489.35 94.0908 487.021 94.8564C484.693 95.5902 482.173 95.957 479.461 95.957Z" fill="black"/>
<defs>
<clipPath id="clip0_98_17">
<rect width="100" height="100" fill="white" transform="translate(28 24)"/>
</clipPath>
</defs>
</svg>
